<?xml version="1.0" encoding="UTF-8"?>
<svg width="225px" height="225px" viewBox="0 0 225 225" version="1.1" xmlns="http://www.w3.org/2000/svg" xmlns:xlink="http://www.w3.org/1999/xlink">
    <!-- Generator: Sketch 57.1 (83088) - https://sketch.com -->
    <title>MFE Round Sticker</title>
    <desc>Created with Sketch.</desc>
    <defs>
        <linearGradient x1="50%" y1="0%" x2="50%" y2="100%" id="linearGradient-1">
            <stop stop-color="#FFFFFF" stop-opacity="0" offset="0%"></stop>
            <stop stop-color="#FFFFFF" stop-opacity="0.401223776" offset="46.9330659%"></stop>
            <stop stop-color="#FFFFFF" stop-opacity="0.00516280594" offset="100%"></stop>
        </linearGradient>
    </defs>
    <g id="Page-1" stroke="none" stroke-width="1" fill="none" fill-rule="evenodd">
        <g id="Artboard" transform="translate(-514.000000, -279.000000)">
            <g id="MFE-Round-Sticker" transform="translate(514.000000, 279.000000)">
                <circle id="Oval" fill="#373A67" cx="112.5" cy="112.5" r="112.5"></circle>
                <path d="M177.101563,44.8984375 L44.1757812,177.824219" id="Line-2" stroke="url(#linearGradient-1)" stroke-linecap="square"></path>
                <path d="M177.101562,51.8984375 L56.1748047,172.825195" id="Line-2" stroke="url(#linearGradient-1)" stroke-linecap="square"></path>
                <path d="M41.4541016,92.2597656 L41.4541016,113 L36.7236328,113 L36.7236328,98.0703125 L31.9794922,113 L28.7802734,113 L24.0224609,97.9472656 L24.0224609,113 L19.2783203,113 L19.2783203,92.2597656 L26.4150391,92.2597656 L30.3662109,104.46875 L34.3447266,92.2597656 L41.4541016,92.2597656 Z M44.7216797,98.1386719 L49.3154297,98.1386719 L49.3154297,113 L44.7216797,113 L44.7216797,98.1386719 Z M47.0595703,96.6074219 C46.5491511,96.6074219 46.0797547,96.4820976 45.6513672,96.2314453 C45.2229796,95.980793 44.8811862,95.6435568 44.6259766,95.2197266 C44.370767,94.7958963 44.2431641,94.3287786 44.2431641,93.8183594 C44.2431641,93.3170548 44.370767,92.8544943 44.6259766,92.4306641 C44.8811862,92.0068338 45.2229796,91.6718762 45.6513672,91.4257812 C46.0797547,91.1796863 46.5491511,91.0566406 47.0595703,91.0566406 C47.5517603,91.0566406 48.0097635,91.1796863 48.4335938,91.4257812 C48.857424,91.6718762 49.1946602,92.0068338 49.4453125,92.4306641 C49.6959648,92.8544943 49.8212891,93.3170548 49.8212891,93.8183594 C49.8212891,94.319664 49.6959648,94.7845031 49.4453125,95.2128906 C49.1946602,95.6412782 48.857424,95.980793 48.4335938,96.2314453 C48.0097635,96.4820976 47.5517603,96.6074219 47.0595703,96.6074219 Z M65.2158203,92 L65.2158203,113 L60.7587891,113 L60.7587891,111.660156 C60.3942039,112.17969 59.8929068,112.578449 59.2548828,112.856445 C58.6168588,113.134441 57.9150429,113.273438 57.1494141,113.273438 C56.046544,113.273438 55.0348353,112.993167 54.1142578,112.432617 C53.1936803,111.872068 52.457685,111.010748 51.90625,109.848633 C51.354815,108.686518 51.0791016,107.253264 51.0791016,105.548828 C51.0791016,103.835278 51.354815,102.397467 51.90625,101.235352 C52.457685,100.073236 53.1936803,99.2096382 54.1142578,98.6445312 C55.0348353,98.0794243 56.046544,97.796875 57.1494141,97.796875 C57.9150429,97.796875 58.6168588,97.935871 59.2548828,98.2138672 C59.8929068,98.4918634 60.3942039,98.8906224 60.7587891,99.4101562 L60.7587891,92 L65.2158203,92 Z M58.3525391,109.527344 C58.8720729,109.527344 59.3414693,109.376955 59.7607422,109.076172 C60.1800151,108.775389 60.5126941,108.3265 60.7587891,107.729492 C61.004884,107.132484 61.1279297,106.405603 61.1279297,105.548828 C61.1279297,104.728512 61.0139985,104.017581 60.7861328,103.416016 C60.5582671,102.81445 60.232424,102.35189 59.8085938,102.02832 C59.3847635,101.704751 58.8903023,101.542969 58.3251953,101.542969 C57.5048787,101.542969 56.8395208,101.880205 56.3291016,102.554688 C55.8186823,103.22917 55.5634766,104.227207 55.5634766,105.548828 C55.5634766,106.861335 55.820961,107.852536 56.3359375,108.522461 C56.850914,109.192386 57.5231078,109.527344 58.3525391,109.527344 Z M81.1025391,92 L81.1025391,113 L76.6455078,113 L76.6455078,111.660156 C76.2809227,112.17969 75.7796256,112.578449 75.1416016,112.856445 C74.5035775,113.134441 73.8017616,113.273438 73.0361328,113.273438 C71.9332627,113.273438 70.9215541,112.993167 70.0009766,112.432617 C69.080399,111.872068 68.3444038,111.010748 67.7929688,109.848633 C67.2415337,108.686518 66.9658203,107.253264 66.9658203,105.548828 C66.9658203,103.835278 67.2415337,102.397467 67.7929688,101.235352 C68.3444038,100.073236 69.080399,99.2096382 70.0009766,98.6445312 C70.9215541,98.0794243 71.9332627,97.796875 73.0361328,97.796875 C73.8017616,97.796875 74.5035775,97.935871 75.1416016,98.2138672 C75.7796256,98.4918634 76.2809227,98.8906224 76.6455078,99.4101562 L76.6455078,92 L81.1025391,92 Z M74.2392578,109.527344 C74.7587917,109.527344 75.228188,109.376955 75.6474609,109.076172 C76.0667339,108.775389 76.3994128,108.3265 76.6455078,107.729492 C76.8916028,107.132484 77.0146484,106.405603 77.0146484,105.548828 C77.0146484,104.728512 76.9007173,104.017581 76.6728516,103.416016 C76.4449858,102.81445 76.1191427,102.35189 75.6953125,102.02832 C75.2714823,101.704751 74.7770211,101.542969 74.2119141,101.542969 C73.3915975,101.542969 72.7262395,101.880205 72.2158203,102.554688 C71.7054011,103.22917 71.4501953,104.227207 71.4501953,105.548828 C71.4501953,106.861335 71.7076797,107.852536 72.2226562,108.522461 C72.7376328,109.192386 73.4098266,109.527344 74.2392578,109.527344 Z M83.8779297,92 L88.4990234,92 L88.4990234,113 L83.8779297,113 L83.8779297,92 Z M104.549805,106.464844 L94.5966797,106.464844 C94.6787113,107.513026 95.0068331,108.31738 95.5810547,108.87793 C96.1552763,109.438479 96.8616495,109.71875 97.7001953,109.71875 C98.2926462,109.71875 98.8121722,109.563804 99.2587891,109.253906 C99.7054059,108.944009 100.033528,108.492842 100.243164,107.900391 L104.426758,108.460938 C104.13509,109.481776 103.670251,110.354489 103.032227,111.079102 C102.394203,111.803715 101.621749,112.355141 100.714844,112.733398 C99.8079382,113.111656 98.8121799,113.300781 97.7275391,113.300781 C96.1780521,113.300781 94.8313859,112.995446 93.6875,112.384766 C92.5436141,111.774085 91.6640656,110.88998 91.0488281,109.732422 C90.4335907,108.574864 90.1259766,107.194018 90.1259766,105.589844 C90.1259766,103.985669 90.4381479,102.602545 91.0625,101.44043 C91.6868521,100.278315 92.5595647,99.3919301 93.6806641,98.78125 C94.8017634,98.1705699 96.1005786,97.8652344 97.5771484,97.8652344 C98.962572,97.8652344 100.179357,98.1363905 101.227539,98.6787109 C102.275721,99.2210314 103.098304,100.055007 103.695312,101.180664 C104.292321,102.306321 104.59082,103.707674 104.59082,105.384766 L104.549805,106.464844 Z M97.6044922,101.091797 C96.7568317,101.091797 96.0869165,101.310545 95.5947266,101.748047 C95.1025366,102.185549 94.7880866,102.887365 94.6513672,103.853516 L100.188477,103.853516 C100.152018,102.951167 99.8990909,102.265302 99.4296875,101.795898 C98.9602841,101.326495 98.3518918,101.091797 97.6044922,101.091797 Z M111.631836,113.273438 C110.3011,113.273438 109.050136,113.068361 107.878906,112.658203 C106.707676,112.248045 105.648117,111.646488 104.700195,110.853516 L106.901367,107.941406 C107.648767,108.552086 108.400712,109.023761 109.157227,109.356445 C109.913741,109.689129 110.697587,109.855469 111.508789,109.855469 C112.192386,109.855469 112.71647,109.739259 113.081055,109.506836 C113.44564,109.274413 113.62793,108.957684 113.62793,108.556641 C113.62793,108.255858 113.509441,108.012045 113.272461,107.825195 C113.035481,107.638345 112.73926,107.497071 112.383789,107.401367 C112.028319,107.305664 111.522464,107.194011 110.866211,107.066406 C110.383136,106.993489 109.94564,106.906902 109.553711,106.806641 C108.305007,106.505858 107.325199,106.036462 106.614258,105.398438 C105.903317,104.760413 105.547852,103.794277 105.547852,102.5 C105.547852,101.442703 105.7985,100.560876 106.299805,99.8544922 C106.801109,99.1481084 107.484696,98.6240251 108.350586,98.2822266 C109.216476,97.940428 110.205398,97.7695312 111.317383,97.7695312 C112.556972,97.7695312 113.723627,97.9677715 114.817383,98.3642578 C115.911138,98.7607442 116.863603,99.2962206 117.674805,99.9707031 L115.610352,102.759766 C115.063474,102.313149 114.404952,101.937176 113.634766,101.631836 C112.864579,101.326496 112.087569,101.173828 111.303711,101.173828 C110.765948,101.173828 110.312502,101.260416 109.943359,101.433594 C109.574217,101.606772 109.389648,101.889321 109.389648,102.28125 C109.389648,102.563803 109.505858,102.789387 109.738281,102.958008 C109.970704,103.126628 110.266925,103.25651 110.626953,103.347656 C110.986981,103.438803 111.499671,103.539062 112.165039,103.648438 C112.2653,103.666667 112.538735,103.716796 112.985352,103.798828 C113.431968,103.88086 113.855792,103.976562 114.256836,104.085938 C115.414394,104.40495 116.337236,104.890296 117.025391,105.541992 C117.713545,106.193688 118.057617,107.125645 118.057617,108.337891 C118.057617,109.376958 117.78874,110.2679 117.250977,111.010742 C116.713213,111.753584 115.958989,112.316404 114.988281,112.699219 C114.017573,113.082033 112.898769,113.273438 111.631836,113.273438 Z M127.668945,97.796875 C128.771815,97.796875 129.781245,98.0794243 130.697266,98.6445312 C131.613286,99.2096382 132.347002,100.073236 132.898438,101.235352 C133.449873,102.397467 133.725586,103.835278 133.725586,105.548828 C133.725586,107.253264 133.449873,108.686518 132.898438,109.848633 C132.347002,111.010748 131.613286,111.872068 130.697266,112.432617 C129.781245,112.993167 128.771815,113.273438 127.668945,113.273438 C126.894202,113.273438 126.187829,113.134441 125.549805,112.856445 C124.911781,112.578449 124.410484,112.175133 124.045898,111.646484 L124.045898,113 L119.602539,113 L119.602539,92 L124.045898,92 L124.045898,99.4238281 C124.410484,98.8951796 124.911781,98.4918634 125.549805,98.2138672 C126.187829,97.935871 126.894202,97.796875 127.668945,97.796875 Z M126.46582,109.527344 C127.003583,109.527344 127.482094,109.381512 127.901367,109.089844 C128.32064,108.798176 128.65104,108.356123 128.892578,107.763672 C129.134116,107.171221 129.254883,106.432947 129.254883,105.548828 C129.254883,104.655594 129.134116,103.908206 128.892578,103.306641 C128.65104,102.705075 128.32064,102.260744 127.901367,101.973633 C127.482094,101.686522 127.008141,101.542969 126.479492,101.542969 C125.914385,101.542969 125.422203,101.704751 125.00293,102.02832 C124.583657,102.35189 124.257814,102.816729 124.025391,103.422852 C123.792968,104.028974 123.676758,104.737626 123.676758,105.548828 C123.676758,106.405603 123.799803,107.132484 124.045898,107.729492 C124.291993,108.3265 124.624672,108.775389 125.043945,109.076172 C125.463218,109.376955 125.937172,109.527344 126.46582,109.527344 Z M139.864258,100.3125 C140.338219,99.5924443 140.985347,99.0250672 141.805664,98.6103516 C142.625981,98.1956359 143.610346,97.983724 144.758789,97.9746094 L144.758789,102.021484 C143.564773,102.021484 142.630537,102.153645 141.956055,102.417969 C141.281572,102.682293 140.800783,103.097002 140.513672,103.662109 C140.226561,104.227216 140.083008,104.988276 140.083008,105.945312 L140.083008,113 L135.489258,113 L135.489258,98.1386719 L139.864258,98.1386719 L139.864258,100.3125 Z M152.387695,113.300781 C150.856438,113.300781 149.500657,112.990889 148.320312,112.371094 C147.139968,111.751299 146.219404,110.860357 145.558594,109.698242 C144.897783,108.536127 144.567383,107.162117 144.567383,105.576172 C144.567383,103.990226 144.895505,102.616217 145.551758,101.454102 C146.208011,100.291986 147.126296,99.4033234 148.306641,98.7880859 C149.486985,98.1728485 150.847323,97.8652344 152.387695,97.8652344 C153.928068,97.8652344 155.290684,98.1705699 156.475586,98.78125 C157.660488,99.3919301 158.58333,100.278315 159.244141,101.44043 C159.904951,102.602545 160.235352,103.981112 160.235352,105.576172 C160.235352,107.171232 159.902673,108.549799 159.237305,109.711914 C158.571937,110.874029 157.646816,111.762692 156.461914,112.37793 C155.277012,112.993167 153.918953,113.300781 152.387695,113.300781 Z M152.333008,109.691406 C153.00749,109.691406 153.599932,109.518231 154.110352,109.171875 C154.620771,108.825519 155.014973,108.342451 155.292969,107.722656 C155.570965,107.102861 155.709961,106.387374 155.709961,105.576172 C155.709961,104.755855 155.570965,104.031253 155.292969,103.402344 C155.014973,102.773434 154.620771,102.285809 154.110352,101.939453 C153.599932,101.593097 153.00749,101.419922 152.333008,101.419922 C151.694984,101.419922 151.129885,101.593097 150.637695,101.939453 C150.145505,102.285809 149.764975,102.773434 149.496094,103.402344 C149.227212,104.031253 149.092773,104.755855 149.092773,105.576172 C149.092773,106.387374 149.227212,107.102861 149.496094,107.722656 C149.764975,108.342451 150.145505,108.825519 150.637695,109.171875 C151.129885,109.518231 151.694984,109.691406 152.333008,109.691406 Z M174.987305,98.1386719 L174.987305,113 L170.790039,113 L170.680664,111.291016 C170.197589,111.919925 169.596032,112.40755 168.875977,112.753906 C168.155921,113.100262 167.353846,113.273438 166.469727,113.273438 C164.856437,113.273438 163.632817,112.831385 162.798828,111.947266 C161.96484,111.063147 161.547852,109.800789 161.547852,108.160156 L161.547852,98.1386719 L166.05957,98.1386719 L166.05957,107.162109 C166.05957,108.018884 166.239582,108.647784 166.599609,109.048828 C166.959637,109.449872 167.41764,109.650391 167.973633,109.650391 C168.693688,109.650391 169.299802,109.379234 169.791992,108.836914 C170.284182,108.294594 170.534831,107.399095 170.543945,106.150391 L170.543945,98.1386719 L174.987305,98.1386719 Z M191.079102,98.1386719 L191.079102,112.439453 C191.079102,113.770189 190.944663,114.9095 190.675781,115.857422 C190.4069,116.805343 189.757492,117.614254 188.727539,118.28418 C187.697586,118.954105 186.139008,119.289062 184.051758,119.289062 C182.02831,119.289062 180.408209,118.888025 179.191406,118.085938 C177.974603,117.28385 177.329753,115.866547 177.256836,113.833984 L181.782227,113.833984 C181.855144,114.736333 182.078449,115.38574 182.452148,115.782227 C182.825848,116.178713 183.395504,116.376953 184.161133,116.376953 C185.008793,116.376953 185.619464,116.137698 185.993164,115.65918 C186.366864,115.180662 186.553711,114.412766 186.553711,113.355469 L186.553711,111.154297 C186.161782,111.664716 185.637699,112.068032 184.981445,112.364258 C184.325192,112.660483 183.60059,112.808594 182.807617,112.808594 C181.677403,112.808594 180.645187,112.512373 179.710938,111.919922 C178.776688,111.327471 178.033857,110.463873 177.482422,109.329102 C176.930987,108.19433 176.655273,106.852221 176.655273,105.302734 C176.655273,103.753247 176.930987,102.417974 177.482422,101.296875 C178.033857,100.175776 178.781245,99.3235706 179.724609,98.7402344 C180.667973,98.1568981 181.713861,97.8652344 182.862305,97.8652344 C183.71908,97.8652344 184.48014,98.0315739 185.145508,98.3642578 C185.810876,98.6969418 186.321287,99.154945 186.676758,99.7382812 L186.676758,98.1386719 L191.079102,98.1386719 Z M183.99707,109.376953 C184.908533,109.376953 185.637693,109.039717 186.18457,108.365234 C186.731448,107.690752 187.004883,106.710944 187.004883,105.425781 C187.004883,104.149733 186.731448,103.167647 186.18457,102.479492 C185.637693,101.791338 184.908533,101.447266 183.99707,101.447266 C183.404619,101.447266 182.882815,101.597655 182.431641,101.898438 C181.980466,102.19922 181.62728,102.648109 181.37207,103.245117 C181.116861,103.842125 180.989258,104.569006 180.989258,105.425781 C180.989258,106.282556 181.116861,107.007158 181.37207,107.599609 C181.62728,108.19206 181.980466,108.636392 182.431641,108.932617 C182.882815,109.228843 183.404619,109.376953 183.99707,109.376953 Z M202.577148,97.8652344 C204.044604,97.8652344 205.197587,98.2503217 206.036133,99.0205078 C206.874679,99.790694 207.293945,100.877597 207.293945,102.28125 L207.293945,113 L202.823242,113 L202.823242,104.195312 C202.823242,103.229162 202.629559,102.538739 202.242188,102.124023 C201.854816,101.709308 201.319339,101.501953 200.635742,101.501953 C199.94303,101.501953 199.389325,101.716144 198.974609,102.144531 C198.559894,102.572919 198.347982,103.26562 198.338867,104.222656 L198.338867,113 L193.868164,113 L193.868164,92 L198.338867,92 L198.338867,99.7109375 C198.812828,99.109372 199.407549,98.6513688 200.123047,98.3369141 C200.838545,98.0224594 201.656571,97.8652344 202.577148,97.8652344 Z" id="Middlesbrough" fill="#FFFFFF" fill-rule="nonzero"></path>
                <path d="M56.8349609,122.388672 L56.8349609,127.078125 L65.9130859,127.078125 L65.9130859,131.166016 L56.8349609,131.166016 L56.8349609,139 L52.0908203,139 L52.0908203,118.259766 L66.9521484,118.259766 L66.9521484,122.388672 L56.8349609,122.388672 Z M73.0224609,126.3125 C73.4964216,125.592444 74.1435506,125.025067 74.9638672,124.610352 C75.7841838,124.195636 76.7685489,123.983724 77.9169922,123.974609 L77.9169922,128.021484 C76.7229758,128.021484 75.7887404,128.153645 75.1142578,128.417969 C74.4397753,128.682293 73.9589858,129.097002 73.671875,129.662109 C73.3847642,130.227216 73.2412109,130.988276 73.2412109,131.945312 L73.2412109,139 L68.6474609,139 L68.6474609,124.138672 L73.0224609,124.138672 L73.0224609,126.3125 Z M85.5458984,139.300781 C84.0146408,139.300781 82.6588601,138.990889 81.4785156,138.371094 C80.2981712,137.751299 79.3776075,136.860357 78.7167969,135.698242 C78.0559863,134.536127 77.7255859,133.162117 77.7255859,131.576172 C77.7255859,129.990226 78.0537077,128.616217 78.7099609,127.454102 C79.3662142,126.291986 80.2844993,125.403323 81.4648438,124.788086 C82.6451882,124.172848 84.0055262,123.865234 85.5458984,123.865234 C87.0862707,123.865234 88.4488873,124.17057 89.6337891,124.78125 C90.8186908,125.39193 91.7415332,126.278315 92.4023438,127.44043 C93.0631543,128.602545 93.3935547,129.981112 93.3935547,131.576172 C93.3935547,133.171232 93.0608757,134.549799 92.3955078,135.711914 C91.7301399,136.874029 90.8050189,137.762692 89.6201172,138.37793 C88.4352154,138.993167 87.0771561,139.300781 85.5458984,139.300781 Z M85.4912109,135.691406 C86.1656935,135.691406 86.7581355,135.518231 87.2685547,135.171875 C87.7789739,134.825519 88.1731757,134.342451 88.4511719,133.722656 C88.7291681,133.102861 88.8681641,132.387374 88.8681641,131.576172 C88.8681641,130.755855 88.7291681,130.031253 88.4511719,129.402344 C88.1731757,128.773434 87.7789739,128.285809 87.2685547,127.939453 C86.7581355,127.593097 86.1656935,127.419922 85.4912109,127.419922 C84.8531869,127.419922 84.2880884,127.593097 83.7958984,127.939453 C83.3037085,128.285809 82.9231784,128.773434 82.6542969,129.402344 C82.3854153,130.031253 82.2509766,130.755855 82.2509766,131.576172 C82.2509766,132.387374 82.3854153,133.102861 82.6542969,133.722656 C82.9231784,134.342451 83.3037085,134.825519 83.7958984,135.171875 C84.2880884,135.518231 84.8531869,135.691406 85.4912109,135.691406 Z M103.702148,123.865234 C105.169604,123.865234 106.322587,124.250322 107.161133,125.020508 C107.999679,125.790694 108.418945,126.877597 108.418945,128.28125 L108.418945,139 L103.948242,139 L103.948242,130.195312 C103.948242,129.229162 103.754559,128.538739 103.367188,128.124023 C102.979816,127.709308 102.444339,127.501953 101.760742,127.501953 C101.06803,127.501953 100.514325,127.716144 100.099609,128.144531 C99.6848938,128.572919 99.4729818,129.26562 99.4638672,130.222656 L99.4638672,139 L94.9931641,139 L94.9931641,124.138672 L99.4638672,124.138672 L99.4638672,125.710938 C99.9378279,125.109372 100.532549,124.651369 101.248047,124.336914 C101.963545,124.022459 102.781571,123.865234 103.702148,123.865234 Z M116.03418,139.273438 C114.548495,139.273438 113.434249,138.854171 112.691406,138.015625 C111.948564,137.177079 111.577148,135.90105 111.577148,134.1875 L111.577148,127.119141 L109.211914,127.119141 L109.211914,124.138672 L111.577148,124.138672 L111.577148,119.394531 L116.088867,119.394531 L116.088867,124.138672 L119.452148,124.138672 L119.452148,127.119141 L116.088867,127.119141 L116.088867,133.326172 C116.088867,133.87305 116.129882,134.315102 116.211914,134.652344 C116.293946,134.989585 116.455728,135.251627 116.697266,135.438477 C116.938803,135.625326 117.29199,135.71875 117.756836,135.71875 C118.203453,135.71875 118.768551,135.623048 119.452148,135.431641 L119.452148,138.740234 C118.166986,139.095705 117.027674,139.273438 116.03418,139.273438 Z M143.022461,134.84375 L143.022461,139 L127.600586,139 L127.600586,118.259766 L142.461914,118.259766 L142.461914,122.388672 L132.344727,122.388672 L132.344727,126.3125 L141.668945,126.3125 L141.668945,130.386719 L132.344727,130.386719 L132.344727,134.84375 L143.022461,134.84375 Z M153.891602,123.865234 C155.359057,123.865234 156.51204,124.250322 157.350586,125.020508 C158.189132,125.790694 158.608398,126.877597 158.608398,128.28125 L158.608398,139 L154.137695,139 L154.137695,130.195312 C154.137695,129.229162 153.944012,128.538739 153.556641,128.124023 C153.169269,127.709308 152.633792,127.501953 151.950195,127.501953 C151.257484,127.501953 150.703778,127.716144 150.289062,128.144531 C149.874347,128.572919 149.662435,129.26562 149.65332,130.222656 L149.65332,139 L145.182617,139 L145.182617,124.138672 L149.65332,124.138672 L149.65332,125.710938 C150.127281,125.109372 150.722002,124.651369 151.4375,124.336914 C152.152998,124.022459 152.971024,123.865234 153.891602,123.865234 Z M174.262695,118 L174.262695,139 L169.805664,139 L169.805664,137.660156 C169.441079,138.17969 168.939782,138.578449 168.301758,138.856445 C167.663734,139.134441 166.961918,139.273438 166.196289,139.273438 C165.093419,139.273438 164.08171,138.993167 163.161133,138.432617 C162.240555,137.872068 161.50456,137.010748 160.953125,135.848633 C160.40169,134.686518 160.125977,133.253264 160.125977,131.548828 C160.125977,129.835278 160.40169,128.397467 160.953125,127.235352 C161.50456,126.073236 162.240555,125.209638 163.161133,124.644531 C164.08171,124.079424 165.093419,123.796875 166.196289,123.796875 C166.961918,123.796875 167.663734,123.935871 168.301758,124.213867 C168.939782,124.491863 169.441079,124.890622 169.805664,125.410156 L169.805664,118 L174.262695,118 Z M167.399414,135.527344 C167.918948,135.527344 168.388344,135.376955 168.807617,135.076172 C169.22689,134.775389 169.559569,134.3265 169.805664,133.729492 C170.051759,133.132484 170.174805,132.405603 170.174805,131.548828 C170.174805,130.728512 170.060874,130.017581 169.833008,129.416016 C169.605142,128.81445 169.279299,128.35189 168.855469,128.02832 C168.431639,127.704751 167.937177,127.542969 167.37207,127.542969 C166.551754,127.542969 165.886396,127.880205 165.375977,128.554688 C164.865557,129.22917 164.610352,130.227207 164.610352,131.548828 C164.610352,132.861335 164.867836,133.852536 165.382812,134.522461 C165.897789,135.192386 166.569983,135.527344 167.399414,135.527344 Z" id="FrontEnd" fill="#97DAF7" fill-rule="nonzero"></path>
            </g>
        </g>
    </g>
</svg>